<svg version="1.1" id="Layer_1" xmlns="http://www.w3.org/2000/svg" xmlns:xlink="http://www.w3.org/1999/xlink" x="0px" y="0px"
	 width="100%" viewBox="0 0 494 399" enable-background="new 0 0 494 399" xml:space="preserve">
<path fill="none" opacity="1.000000" stroke="#000000" stroke-linecap="round" stroke-linejoin="round" stroke-width="15.000000"
	d="
M244.000000,86.000000 
	C244.000000,79.833336 244.140335,73.662636 243.963364,67.501053 
	C243.756714,60.307056 241.086349,54.385063 233.986038,51.534782 
	C225.162552,47.992756 215.607941,53.362030 213.536194,63.007774 
	C212.261963,68.940430 213.080322,75.002335 213.060867,81.000198 
	C213.045197,85.828476 212.668152,90.654633 213.442245,95.509209 
	C215.098038,105.893219 221.725174,113.319252 227.999359,121.000526 
	C231.545837,125.342369 235.067490,129.679123 238.049622,134.469116 
	C242.087051,140.954163 243.717285,148.076004 243.934357,155.501923 
	C244.206970,164.827286 243.920303,174.167542 244.021774,183.499756 
	C244.129288,193.388535 235.683868,200.637009 227.491226,200.146652 
	C220.674454,199.738693 212.351608,191.914536 212.819916,184.987823 
	C213.515350,174.701508 213.000000,164.333328 213.000000,154.000000 
"/>
<path fill="none" opacity="1.000000" stroke="#000000" stroke-linecap="round" stroke-linejoin="round" stroke-width="15.000000"
	d="
M278.500000,125.500000 
	C280.666656,125.500000 282.835876,125.432365 284.999481,125.513802 
	C289.788696,125.694069 294.623840,126.088814 297.506989,121.003952 
	C297.619049,120.806328 297.803192,120.596519 298.004333,120.510086 
	C306.785980,116.736336 307.915924,109.456398 307.600159,100.996262 
	C307.190155,90.011566 307.560577,78.999557 307.480255,68.000145 
	C307.419220,59.642006 303.675232,53.263126 296.966705,51.915844 
	C291.288940,50.775581 285.293427,50.974880 279.510742,52.057373 
	C276.046448,52.705868 276.001190,55.707932 276.000732,58.500000 
	C275.998932,69.000000 276.000000,79.500000 276.000000,90.000000 
	C276.000000,98.500000 275.022186,107.147308 276.274323,115.458672 
	C277.532990,123.813217 275.922974,131.832504 275.970245,140.000168 
	C276.068695,156.999603 275.995819,174.000000 276.005127,191.000000 
	C276.006348,193.212036 275.734711,195.476715 277.000000,197.500000 
"/>
<path fill="none" opacity="1.000000" stroke="#000000" stroke-linecap="round" stroke-linejoin="round" stroke-width="14.000000"
	d="
M294.500000,126.000000 
	C296.232483,128.231094 298.453064,129.777252 300.984863,131.030609 
	C305.682770,133.356277 307.476257,137.488281 307.488739,142.500031 
	C307.521942,155.833267 307.807098,169.176056 307.399841,182.496933 
	C307.091125,192.593918 300.858673,200.148499 289.999481,199.509033 
	C283.502380,199.126450 277.001312,198.802353 270.498779,198.528915 
	C269.344574,198.480392 268.346375,198.266220 267.502472,197.497284 
	C263.127563,193.510971 258.178802,190.052902 255.500000,184.500000 
"/>
<path fill="none" opacity="1.000000" stroke="#000000" stroke-linecap="round" stroke-linejoin="round" stroke-width="7.000000"
	d="
M244.500000,262.500000 
	C248.199432,264.106598 251.579437,266.555267 256.004944,266.042786 
	C260.327545,265.542206 263.272858,263.240753 264.940063,259.473480 
	C266.412323,256.146729 264.334290,250.585205 261.535797,247.961807 
	C257.948944,244.599319 253.930099,244.806259 250.031769,246.570221 
	C242.760284,249.860489 242.047592,252.710419 243.332809,261.025848 
	C244.083679,265.884033 243.166672,271.000000 243.000015,276.000000 
"/>
<path fill="none" opacity="1.000000" stroke="#000000" stroke-linecap="round" stroke-linejoin="round" stroke-width="6.000000"
	d="
M412.000000,265.000000 
	C410.666992,262.166656 412.109711,259.338684 412.055115,256.498932 
	C411.922363,249.587570 410.661652,247.780884 404.000000,245.999969 
	C398.385132,244.498886 393.444672,246.399094 391.000000,251.000000 
	C389.050934,254.668152 390.035797,260.823792 393.000000,263.500000 
	C396.481750,266.643555 402.577881,266.953064 406.960327,263.942261 
	C408.262482,263.047638 409.406067,262.305023 411.000000,262.500000 
"/>
<path fill="none" opacity="1.000000" stroke="#000000" stroke-linecap="round" stroke-linejoin="round" stroke-width="6.000000"
	d="
M113.500000,235.500000 
	C111.132431,234.173431 108.486565,234.207291 106.012535,234.582642 
	C102.616646,235.097855 98.828064,235.469879 97.994896,239.999054 
	C97.204437,244.296097 99.279297,246.658813 102.946350,248.601273 
	C105.779449,250.102005 108.849396,251.005249 111.593788,252.861313 
	C114.902893,255.099304 114.657013,258.015686 114.428848,260.994537 
	C114.192505,264.080231 111.166512,265.075439 108.980339,265.333282 
	C104.764183,265.830566 100.325920,266.442322 96.250000,264.250000 
"/>
<path fill="none" opacity="1.000000" stroke="#000000" stroke-linecap="round" stroke-linejoin="round" stroke-width="6.000000"
	d="
M295.000000,250.000000 
	C296.436035,247.320557 298.233093,244.957458 298.133453,241.496155 
	C298.024902,237.724930 296.445465,236.010010 292.998566,235.509827 
	C292.508881,235.438766 291.996918,235.536621 291.500458,235.494690 
	C276.489380,234.227112 277.336639,234.337448 278.425598,248.505722 
	C278.743011,252.635178 278.306915,256.845245 277.954254,260.996124 
	C277.686859,264.143646 278.728729,265.693756 282.000397,265.507141 
	C285.831055,265.288574 289.704926,265.971283 293.498962,264.996002 
	C297.903046,263.863922 300.380280,260.675415 299.750000,257.000000 
	C298.929657,252.216171 295.226440,249.640244 290.495422,249.923325 
	C286.851776,250.141342 283.166656,249.666672 279.500000,249.500000 
"/>
<path fill="none" opacity="1.000000" stroke="#000000" stroke-linecap="round" stroke-linejoin="round" stroke-width="5.000000"
	d="
M159.500000,255.500000 
	C156.093674,255.486618 153.023575,253.563202 149.494507,253.949814 
	C145.403946,254.397903 143.000000,256.434967 143.000000,260.000000 
	C143.000000,263.562561 145.422836,265.673615 149.496185,266.042145 
	C152.055252,266.273682 154.311111,265.507996 156.479782,264.458252 
	C158.214630,263.618500 159.753799,262.549194 161.000000,265.000000 
"/>
<path fill="none" opacity="1.000000" stroke="#000000" stroke-linecap="round" stroke-linejoin="round" stroke-width="2.000000"
	d="
M212.000000,295.500000 
	C211.833328,295.000000 211.715988,294.476593 211.491776,294.003906 
	C210.285416,291.460663 208.971054,289.178802 205.496841,289.461151 
	C202.562027,289.699646 201.530884,291.665802 201.041580,294.008698 
	C200.375244,297.199188 200.429306,300.373901 203.512024,302.482422 
	C206.516006,304.537170 209.628906,303.261200 210.987976,299.495667 
	C211.398926,298.357025 211.666656,297.166656 212.000000,296.000000 
"/>
<path fill="none" opacity="1.000000" stroke="#000000" stroke-linecap="round" stroke-linejoin="round" stroke-width="7.000000"
	d="
M212.000000,247.000000 
	C212.542191,251.484528 211.113235,256.036011 212.938400,260.525055 
	C215.106079,265.856415 217.508850,266.813965 223.047089,265.157440 
	C225.473206,264.431763 227.124435,261.815094 230.000000,262.500000 
"/>
<path fill="none" opacity="1.000000" stroke="#000000" stroke-linecap="round" stroke-linejoin="round" stroke-width="2.000000"
	d="
M314.500000,290.500000 
	C313.210449,289.219574 311.568024,289.535828 310.000061,289.497437 
	C308.260468,289.454834 307.510254,290.650787 307.023590,292.008453 
	C306.517303,293.420898 307.590240,294.243805 308.516083,294.979767 
	C309.270294,295.579315 310.109131,296.222870 311.011414,296.455780 
	C313.210907,297.023621 316.014709,297.587799 314.842255,300.435059 
	C313.734955,303.124146 311.193298,304.695496 307.969055,302.546417 
	C307.468994,302.213104 306.443390,302.668274 306.500000,301.500000 
"/>
<path fill="none" opacity="1.000000" stroke="#000000" stroke-linecap="round" stroke-linejoin="round" stroke-width="8.000000"
	d="
M126.500000,240.500000 
	C126.753174,247.497940 125.955032,254.520401 126.998291,261.500244 
	C127.526917,265.036987 131.966782,267.221375 135.016815,265.530334 
	C136.100281,264.929657 135.150116,264.120850 135.500000,263.500000 
"/>
<path fill="none" opacity="1.000000" stroke="#000000" stroke-linecap="round" stroke-linejoin="round" stroke-width="2.000000"
	d="
M175.500000,289.500000 
	C174.666672,289.500000 173.833237,289.492432 173.000015,289.501709 
	C171.570160,289.517578 170.396652,289.244019 169.841934,291.460449 
	C169.314972,293.565826 170.227036,294.042023 171.448959,295.061188 
	C172.403122,295.857025 173.450607,296.116882 174.504303,296.487762 
	C176.986664,297.361389 177.704895,299.567169 176.853729,301.433289 
	C175.982971,303.342377 173.709778,304.375000 171.557373,302.915405 
	C170.892807,302.464752 169.316635,303.133362 169.500000,301.500000 
"/>
<path fill="none" opacity="1.000000" stroke="#000000" stroke-linecap="round" stroke-linejoin="round" stroke-width="3.000000"
	d="
M222.000000,297.000000 
	C222.666672,297.000000 223.340515,297.063354 223.998718,296.988708 
	C226.487076,296.706543 228.928635,296.276520 228.989517,292.999817 
	C229.065628,288.901855 226.054886,289.509338 223.500031,289.515564 
	C222.817627,289.517242 222.000687,289.169403 221.036377,290.789764 
	C220.621002,294.459595 221.801987,299.071747 220.500000,303.500000 
"/>
<path fill="none" opacity="1.000000" stroke="#000000" stroke-linecap="round" stroke-linejoin="round" stroke-width="7.000000"
	d="
M195.000000,240.000000 
	C195.000000,246.000000 195.000000,252.000000 195.000000,258.000000 
	C195.000000,264.655609 196.135025,265.790619 203.000000,266.000000 
"/>
<path fill="none" opacity="1.000000" stroke="#000000" stroke-linecap="round" stroke-linejoin="round" stroke-width="6.000000"
	d="
M160.500000,263.000000 
	C161.793411,259.166656 160.767624,255.266495 160.336472,251.518814 
	C159.906082,247.777878 156.899292,245.422791 153.004395,245.597794 
	C149.857269,245.739166 145.798203,243.894592 144.000000,248.500000 
"/>
<path fill="none" opacity="1.000000" stroke="#000000" stroke-linecap="round" stroke-linejoin="round" stroke-width="3.000000"
	d="
M254.500000,147.500000 
	C257.590942,154.022217 264.106445,157.612900 268.178680,163.373703 
	C269.479340,165.213684 273.004791,163.761383 275.500000,164.000000 
"/>
<path fill="none" opacity="1.000000" stroke="#000000" stroke-linecap="round" stroke-linejoin="round" stroke-width="6.000000"
	d="
M359.500000,265.500000 
	C359.166687,261.833344 358.387238,258.140198 358.602753,254.506088 
	C358.940613,248.808792 358.696350,247.516159 353.473969,246.095673 
	C349.805298,245.097794 345.806274,244.357101 342.500000,247.500000 
"/>
<path fill="none" opacity="1.000000" stroke="#000000" stroke-linecap="round" stroke-linejoin="round" stroke-width="3.000000"
	d="
M255.500000,157.500000 
	C258.231293,163.448242 263.736359,166.942993 268.121460,171.379959 
	C269.823120,173.101730 273.002289,171.799179 275.500000,172.000000 
"/>
<path fill="none" opacity="1.000000" stroke="#000000" stroke-linecap="round" stroke-linejoin="round" stroke-width="3.000000"
	d="
M255.500000,175.500000 
	C258.178802,181.052902 263.062683,184.585739 267.527863,188.467972 
	C269.848541,190.485657 272.832458,189.173721 275.500000,189.500000 
"/>
<path fill="none" opacity="1.000000" stroke="#000000" stroke-linecap="round" stroke-linejoin="round" stroke-width="3.000000"
	d="
M255.500000,68.500000 
	C258.231293,74.448242 263.736328,77.943001 268.121460,82.379967 
	C269.823120,84.101738 273.002289,82.799179 275.500000,83.000000 
"/>
<path fill="none" opacity="1.000000" stroke="#000000" stroke-linecap="round" stroke-linejoin="round" stroke-width="3.000000"
	d="
M255.500000,77.500000 
	C258.231293,83.448242 263.736328,86.943001 268.121460,91.379967 
	C269.823090,93.101738 273.002289,91.799179 275.500000,92.000000 
"/>
<path fill="none" opacity="1.000000" stroke="#000000" stroke-linecap="round" stroke-linejoin="round" stroke-width="3.000000"
	d="
M255.500000,166.500000 
	C258.231293,172.448242 263.736359,175.942993 268.121460,180.379959 
	C269.823090,182.101746 273.002289,180.799179 275.500000,181.000000 
"/>
<path fill="none" opacity="1.000000" stroke="#000000" stroke-linecap="round" stroke-linejoin="round" stroke-width="3.000000"
	d="
M255.500000,86.500000 
	C258.231293,92.448242 263.736328,95.943001 268.121460,100.379967 
	C269.823120,102.101730 273.002289,100.799179 275.500000,101.000000 
"/>
<path fill="none" opacity="1.000000" stroke="#000000" stroke-linecap="round" stroke-linejoin="round" stroke-width="3.000000"
	d="
M256.000000,97.500000 
	C258.333344,99.833336 261.016724,101.914253 262.921814,104.556374 
	C266.160614,109.048157 270.413086,110.133919 275.500000,109.500000 
"/>
<path fill="none" opacity="1.000000" stroke="#000000" stroke-linecap="round" stroke-linejoin="round" stroke-width="5.000000"
	d="
M357.500000,255.500000 
	C354.155151,255.076721 350.996338,253.529266 347.497711,253.982437 
	C344.029388,254.431671 341.128876,257.038788 341.000031,260.000000 
	C340.881134,262.732239 344.045135,265.484680 347.493774,266.038696 
	C351.408813,266.667664 354.533081,264.472290 358.000000,263.500000 
"/>
<path fill="none" opacity="1.000000" stroke="#000000" stroke-linecap="round" stroke-linejoin="round" stroke-width="3.000000"
	d="
M231.500000,106.500000 
	C236.166672,112.166664 240.833328,117.833328 245.500000,123.500000 
"/>
<path fill="none" opacity="1.000000" stroke="#000000" stroke-linecap="round" stroke-linejoin="round" stroke-width="3.000000"
	d="
M315.500000,131.500000 
	C320.166687,136.833328 324.833344,142.166656 329.500000,147.500000 
"/>
<path fill="none" opacity="1.000000" stroke="#000000" stroke-linecap="round" stroke-linejoin="round" stroke-width="3.000000"
	d="
M318.500000,89.500000 
	C319.680786,93.282486 323.102631,95.219933 325.503937,97.996605 
	C327.600342,100.420708 330.563232,102.149414 331.500000,105.500000 
"/>
<path fill="none" opacity="1.000000" stroke="#000000" stroke-linecap="round" stroke-linejoin="round" stroke-width="3.000000"
	d="
M318.500000,178.500000 
	C319.809448,182.492142 323.445190,184.546585 326.008209,187.492874 
	C327.960022,189.736588 330.669037,191.379089 331.500000,194.500000 
"/>
<path fill="none" opacity="1.000000" stroke="#000000" stroke-linecap="round" stroke-linejoin="round" stroke-width="3.000000"
	d="
M318.500000,62.500000 
	C319.219635,65.395157 321.647217,66.975449 323.498291,69.001556 
	C326.292725,72.060173 329.845520,74.480972 331.500000,78.500000 
"/>
<path fill="none" opacity="1.000000" stroke="#000000" stroke-linecap="round" stroke-linejoin="round" stroke-width="3.000000"
	d="
M226.500000,211.500000 
	C230.492142,212.809433 232.546570,216.445206 235.492874,219.008194 
	C237.736588,220.960022 239.379089,223.669037 242.500000,224.500000 
"/>
<path fill="none" opacity="1.000000" stroke="#000000" stroke-linecap="round" stroke-linejoin="round" stroke-width="3.000000"
	d="
M318.500000,98.500000 
	C319.680786,102.282486 323.102631,104.219925 325.503937,106.996590 
	C327.600342,109.420700 330.563232,111.149414 331.500000,114.500000 
"/>
<path fill="none" opacity="1.000000" stroke="#000000" stroke-linecap="round" stroke-linejoin="round" stroke-width="3.000000"
	d="
M251.500000,135.500000 
	C254.544571,141.880447 261.413422,145.153671 264.500000,151.500000 
"/>
<path fill="none" opacity="1.000000" stroke="#000000" stroke-linecap="round" stroke-linejoin="round" stroke-width="3.000000"
	d="
M318.500000,80.500000 
	C319.680786,84.282486 323.102631,86.219933 325.503937,88.996597 
	C327.600342,91.420708 330.563232,93.149414 331.500000,96.500000 
"/>
<path fill="none" opacity="1.000000" stroke="#000000" stroke-linecap="round" stroke-linejoin="round" stroke-width="3.000000"
	d="
M318.500000,169.500000 
	C319.680786,173.282486 323.102631,175.219940 325.503937,177.996613 
	C327.600342,180.420700 330.563232,182.149414 331.500000,185.500000 
"/>
<path fill="none" opacity="1.000000" stroke="#000000" stroke-linecap="round" stroke-linejoin="round" stroke-width="3.000000"
	d="
M276.500000,210.000000 
	C280.376038,211.681107 282.385712,215.463196 285.504242,217.994766 
	C287.526062,219.636002 288.754730,222.227646 291.500000,223.000000 
"/>
<path fill="none" opacity="1.000000" stroke="#000000" stroke-linecap="round" stroke-linejoin="round" stroke-width="3.000000"
	d="
M285.500000,210.000000 
	C289.376038,211.681107 291.385712,215.463196 294.504242,217.994766 
	C296.526062,219.636002 297.754730,222.227646 300.500000,223.000000 
"/>
<path fill="none" opacity="1.000000" stroke="#000000" stroke-linecap="round" stroke-linejoin="round" stroke-width="3.000000"
	d="
M235.500000,211.000000 
	C239.376053,212.681107 241.443100,216.395798 244.483368,219.019272 
	C246.387650,220.662476 247.850677,222.865768 250.500000,223.500000 
"/>
<path fill="none" opacity="1.000000" stroke="#000000" stroke-linecap="round" stroke-linejoin="round" stroke-width="3.000000"
	d="
M215.500000,208.500000 
	C221.277161,211.936600 224.764984,218.014755 230.500000,221.500000 
"/>
<path fill="none" opacity="1.000000" stroke="#000000" stroke-linecap="round" stroke-linejoin="round" stroke-width="3.000000"
	d="
M319.000000,161.500000 
	C320.681122,165.376053 324.395782,167.443100 327.019257,170.483383 
	C328.662476,172.387650 330.865784,173.850677 331.500000,176.500000 
"/>
<path fill="none" opacity="1.000000" stroke="#000000" stroke-linecap="round" stroke-linejoin="round" stroke-width="7.000000"
	d="
M412.000000,234.000000 
	C411.551514,238.992325 413.048981,244.114380 411.000000,249.000000 
"/>
<path fill="none" opacity="1.000000" stroke="#000000" stroke-linecap="round" stroke-linejoin="round" stroke-width="3.000000"
	d="
M319.000000,152.500000 
	C320.681122,156.376053 324.395813,158.443100 327.019257,161.483368 
	C328.662476,163.387634 330.865784,164.850677 331.500000,167.500000 
"/>
<path fill="none" opacity="1.000000" stroke="#000000" stroke-linecap="round" stroke-linejoin="round" stroke-width="3.000000"
	d="
M319.000000,72.500000 
	C320.681122,76.376053 324.395782,78.443115 327.019257,81.483383 
	C328.662476,83.387665 330.865784,84.850670 331.500000,87.500000 
"/>
<path fill="none" opacity="1.000000" stroke="#000000" stroke-linecap="round" stroke-linejoin="round" stroke-width="3.000000"
	d="
M319.000000,143.500000 
	C320.681122,147.376053 324.379333,149.458237 327.025238,152.477890 
	C328.686615,154.373947 330.604797,156.046417 331.500000,158.500000 
"/>
<path fill="none" opacity="1.000000" stroke="#000000" stroke-linecap="round" stroke-linejoin="round" stroke-width="7.000000"
	d="
M371.000000,247.000000 
	C371.000000,253.000000 371.000000,259.000000 371.000000,265.000000 
"/>
<path fill="none" opacity="1.000000" stroke="#000000" stroke-linecap="round" stroke-linejoin="round" stroke-width="3.000000"
	d="
M318.500000,107.500000 
	C319.680786,111.282486 323.130951,113.195808 325.495087,116.004135 
	C327.322998,118.175499 330.040283,119.594131 331.000000,122.500000 
"/>
<path fill="none" opacity="1.000000" stroke="#000000" stroke-linecap="round" stroke-linejoin="round" stroke-width="3.000000"
	d="
M224.500000,91.500000 
	C226.154495,95.519028 229.745758,97.905724 232.486954,101.011520 
	C234.053146,102.786049 236.359192,103.963692 237.000000,106.500000 
"/>
<path fill="none" opacity="1.000000" stroke="#000000" stroke-linecap="round" stroke-linejoin="round" stroke-width="7.000000"
	d="
M173.000000,247.000000 
	C173.000000,253.000000 173.000000,259.000000 173.000000,265.000000 
"/>
<path fill="none" opacity="1.000000" stroke="#000000" stroke-linecap="round" stroke-linejoin="round" stroke-width="3.000000"
	d="
M246.500000,98.000000 
	C250.376053,99.681114 252.443100,103.395798 255.483383,106.019257 
	C257.387665,107.662460 258.850677,109.865776 261.500000,110.500000 
"/>
<path fill="none" opacity="1.000000" stroke="#000000" stroke-linecap="round" stroke-linejoin="round" stroke-width="3.000000"
	d="
M237.500000,98.000000 
	C241.376053,99.681114 243.443115,103.395782 246.483383,106.019257 
	C248.387665,107.662445 249.850677,109.865776 252.500000,110.500000 
"/>
<path fill="none" opacity="1.000000" stroke="#000000" stroke-linecap="round" stroke-linejoin="round" stroke-width="7.000000"
	d="
M231.000000,247.000000 
	C231.000000,253.000000 231.000000,259.000000 231.000000,265.000000 
"/>
<path fill="none" opacity="1.000000" stroke="#000000" stroke-linecap="round" stroke-linejoin="round" stroke-width="3.000000"
	d="
M295.000000,210.000000 
	C300.334229,213.774643 303.744812,219.694901 309.500000,223.000000 
"/>
<path fill="none" opacity="1.000000" stroke="#000000" stroke-linecap="round" stroke-linejoin="round" stroke-width="3.000000"
	d="
M267.500000,210.000000 
	C273.255188,213.305099 276.665771,219.225357 282.000000,223.000000 
"/>
<path fill="none" opacity="1.000000" stroke="#000000" stroke-linecap="round" stroke-linejoin="round" stroke-width="3.000000"
	d="
M254.000000,59.000000 
	C257.713959,64.223595 263.609222,67.566765 266.500000,73.500000 
"/>
<path fill="none" opacity="1.000000" stroke="#000000" stroke-linecap="round" stroke-linejoin="round" stroke-width="3.000000"
	d="
M313.500000,122.000000 
	C318.799072,125.700935 323.299072,130.200928 327.000000,135.500000 
"/>
<path fill="none" opacity="1.000000" stroke="#000000" stroke-linecap="round" stroke-linejoin="round" stroke-width="3.000000"
	d="
M307.500000,205.500000 
	C313.448242,208.231293 316.704376,213.977768 321.500000,218.000000 
"/>
<path fill="none" opacity="1.000000" stroke="#000000" stroke-linecap="round" stroke-linejoin="round" stroke-width="3.000000"
	d="
M318.000000,117.500000 
	C321.629578,122.175262 327.410889,124.864304 330.000000,130.500000 
"/>
<path fill="none" opacity="1.000000" stroke="#000000" stroke-linecap="round" stroke-linejoin="round" stroke-width="3.000000"
	d="
M319.000000,189.000000 
	C322.336029,194.090179 328.087524,197.033325 331.000000,202.500000 
"/>
<path fill="none" opacity="1.000000" stroke="#000000" stroke-linecap="round" stroke-linejoin="round" stroke-width="3.000000"
	d="
M254.000000,192.500000 
	C257.154510,197.937195 262.487091,201.357651 266.500000,206.000000 
"/>
<path fill="none" opacity="1.000000" stroke="#000000" stroke-linecap="round" stroke-linejoin="round" stroke-width="3.000000"
	d="
M252.000000,200.500000 
	C255.873337,204.950256 260.978485,208.263443 264.000000,213.500000 
"/>
<path fill="none" opacity="1.000000" stroke="#000000" stroke-linecap="round" stroke-linejoin="round" stroke-width="3.000000"
	d="
M302.500000,209.000000 
	C307.736542,212.021515 311.049744,217.126663 315.500000,221.000000 
"/>
<path fill="none" opacity="1.000000" stroke="#000000" stroke-linecap="round" stroke-linejoin="round" stroke-width="2.000000"
	d="
M367.500000,289.500000 
	C365.333344,289.500000 363.166656,289.500000 360.750000,289.500000 
	C360.750000,294.000000 360.750000,298.500000 360.750000,302.903656 
	C363.108002,303.929352 365.333069,303.336670 367.500000,303.500000 
"/>
<path fill="none" opacity="1.000000" stroke="#000000" stroke-linecap="round" stroke-linejoin="round" stroke-width="2.000000"
	d="
M377.500000,291.000000 
	C380.000000,295.166656 382.500000,299.333344 385.000000,303.500000 
"/>
<path fill="none" opacity="1.000000" stroke="#000000" stroke-linecap="round" stroke-linejoin="round" stroke-width="2.000000"
	d="
M273.500000,289.500000 
	C275.365540,293.756836 275.580688,298.648438 278.462708,302.557281 
	C281.085114,298.519928 281.230988,293.601654 283.500000,289.500000 
"/>
<path fill="none" opacity="1.000000" stroke="#000000" stroke-linecap="round" stroke-linejoin="round" stroke-width="3.000000"
	d="
M313.000000,201.000000 
	C317.508606,204.824722 321.761505,208.905167 325.500000,213.500000 
"/>
<path fill="none" opacity="1.000000" stroke="#000000" stroke-linecap="round" stroke-linejoin="round" stroke-width="3.000000"
	d="
M317.000000,196.500000 
	C320.873322,200.950256 325.978485,204.263443 329.000000,209.500000 
"/>
<path fill="none" opacity="1.000000" stroke="#000000" stroke-linecap="round" stroke-linejoin="round" stroke-width="2.000000"
	d="
M398.000000,290.500000 
	C399.719482,294.773621 397.144043,299.212402 398.500000,303.500000 
"/>
<path fill="none" opacity="1.000000" stroke="#000000" stroke-linecap="round" stroke-linejoin="round" stroke-width="2.000000"
	d="
M326.500000,291.000000 
	C326.500000,295.166656 326.500000,299.333344 326.500000,303.500000 
"/>
<path fill="none" opacity="1.000000" stroke="#000000" stroke-linecap="round" stroke-linejoin="round" stroke-width="3.000000"
	d="
M248.000000,205.500000 
	C252.166672,209.333328 256.333344,213.166672 260.500000,217.000000 
"/>
<path fill="none" opacity="1.000000" stroke="#000000" stroke-linecap="round" stroke-linejoin="round" stroke-width="2.000000"
	d="
M297.500000,289.500000 
	C295.666656,289.500000 293.833344,289.500000 291.750000,289.500000 
	C291.750000,294.000000 291.750000,298.500000 291.750000,302.905731 
	C293.772583,303.835022 295.661804,303.386993 297.500000,303.500000 
"/>
<path fill="none" opacity="1.000000" stroke="#000000" stroke-linecap="round" stroke-linejoin="round" stroke-width="2.000000"
	d="
M257.000031,289.500000 
	C256.833344,294.166656 256.666687,298.833344 256.500031,303.500000 
"/>
<path fill="none" opacity="1.000000" stroke="#000000" stroke-linecap="round" stroke-linejoin="round" stroke-width="3.000000"
	d="
M151.500000,289.500000 
	C149.493118,289.500000 147.486252,289.500000 145.000000,289.500000 
	C145.000000,293.484192 144.838654,297.001343 145.039322,300.497742 
	C145.313019,305.266724 149.149323,302.898682 151.500000,303.500000 
"/>
<path fill="none" opacity="1.000000" stroke="#000000" stroke-linecap="round" stroke-linejoin="round" stroke-width="2.000000"
	d="
M350.000000,289.500000 
	C350.166656,294.166656 350.333313,298.833344 350.500000,303.500000 
"/>
<path fill="none" opacity="1.000000" stroke="#000000" stroke-linecap="round" stroke-linejoin="round" stroke-width="2.000000"
	d="
M377.000000,289.500000 
	C376.833313,294.166656 376.666656,298.833344 376.500000,303.500000 
"/>
<path fill="none" opacity="1.000000" stroke="#000000" stroke-linecap="round" stroke-linejoin="round" stroke-width="3.000000"
	d="
M189.000000,290.500000 
	C189.000000,294.500000 189.000000,298.500000 189.000000,302.500000 
"/>
<path fill="none" opacity="1.000000" stroke="#000000" stroke-linecap="round" stroke-linejoin="round" stroke-width="3.000000"
	d="
M287.500000,93.500000 
	C289.094208,98.554352 294.833832,100.499634 296.500000,105.500000 
"/>
<path fill="none" opacity="1.000000" stroke="#000000" stroke-linecap="round" stroke-linejoin="round" stroke-width="3.000000"
	d="
M135.500000,289.500000 
	C135.216583,293.337036 134.933182,297.174072 134.610870,301.537720 
	C131.068588,298.642456 130.044739,294.510895 127.189240,291.131531 
	C124.994293,294.893158 126.451576,298.826721 126.000000,302.500000 
"/>
<path fill="none" opacity="1.000000" stroke="#000000" stroke-linecap="round" stroke-linejoin="round" stroke-width="3.000000"
	d="
M243.500000,209.000000 
	C247.333344,212.833328 251.166672,216.666656 255.000000,220.500000 
"/>
<path fill="none" opacity="1.000000" stroke="#000000" stroke-linecap="round" stroke-linejoin="round" stroke-width="3.000000"
	d="
M287.500000,67.500000 
	C288.877930,72.291306 294.231476,74.010529 296.000000,78.500000 
"/>
<path fill="none" opacity="1.000000" stroke="#000000" stroke-linecap="round" stroke-linejoin="round" stroke-width="3.000000"
	d="
M287.500000,85.500000 
	C288.877930,90.291306 294.231476,92.010529 296.000000,96.500000 
"/>
<path fill="none" opacity="1.000000" stroke="#000000" stroke-linecap="round" stroke-linejoin="round" stroke-width="3.000000"
	d="
M287.500000,156.500000 
	C288.877930,161.291306 294.231476,163.010529 296.000000,167.500000 
"/>
<path fill="none" opacity="1.000000" stroke="#000000" stroke-linecap="round" stroke-linejoin="round" stroke-width="3.000000"
	d="
M224.000000,153.500000 
	C225.768524,157.989471 231.122086,159.708694 232.500000,164.500000 
"/>
<path fill="none" opacity="1.000000" stroke="#000000" stroke-linecap="round" stroke-linejoin="round" stroke-width="3.000000"
	d="
M287.500000,147.500000 
	C288.877930,152.291306 294.231476,154.010529 296.000000,158.500000 
"/>
<path fill="none" opacity="1.000000" stroke="#000000" stroke-linecap="round" stroke-linejoin="round" stroke-width="3.000000"
	d="
M224.000000,73.500000 
	C225.768524,77.989471 231.122086,79.708694 232.500000,84.500000 
"/>
<path fill="none" opacity="1.000000" stroke="#000000" stroke-linecap="round" stroke-linejoin="round" stroke-width="3.000000"
	d="
M287.500000,76.500000 
	C288.877930,81.291306 294.231476,83.010529 296.000000,87.500000 
"/>
<path fill="none" opacity="1.000000" stroke="#000000" stroke-linecap="round" stroke-linejoin="round" stroke-width="3.000000"
	d="
M287.500000,138.500000 
	C288.877930,143.291306 294.231476,145.010529 296.000000,149.500000 
"/>
<path fill="none" opacity="1.000000" stroke="#000000" stroke-linecap="round" stroke-linejoin="round" stroke-width="3.000000"
	d="
M224.500000,64.500000 
	C225.764786,69.186218 231.235214,70.813782 232.500000,75.500000 
"/>
<path fill="none" opacity="1.000000" stroke="#000000" stroke-linecap="round" stroke-linejoin="round" stroke-width="2.000000"
	d="
M385.500000,289.500000 
	C385.180634,293.159729 386.156006,296.878296 385.000000,300.500000 
"/>
<path fill="none" opacity="1.000000" stroke="#000000" stroke-linecap="round" stroke-linejoin="round" stroke-width="2.000000"
	d="
M265.500000,289.500000 
	C265.180634,293.159729 266.156006,296.878296 265.000000,300.500000 
"/>
<path fill="none" opacity="1.000000" stroke="#000000" stroke-linecap="round" stroke-linejoin="round" stroke-width="3.000000"
	d="
M287.500000,165.500000 
	C288.877930,170.291306 294.231476,172.010529 296.000000,176.500000 
"/>
<path fill="none" opacity="1.000000" stroke="#000000" stroke-linecap="round" stroke-linejoin="round" stroke-width="5.000000"
	d="
M382.000000,246.000000 
	C378.487091,246.653595 375.672302,249.301788 372.000000,249.500000 
"/>
<path fill="none" opacity="1.000000" stroke="#000000" stroke-linecap="round" stroke-linejoin="round" stroke-width="2.000000"
	d="
M340.000000,292.500000 
	C338.928345,295.788086 339.759155,299.171295 339.500000,302.500000 
"/>
<path fill="none" opacity="1.000000" stroke="#000000" stroke-linecap="round" stroke-linejoin="round" stroke-width="5.000000"
	d="
M184.000000,246.000000 
	C180.322769,246.184082 177.688370,249.347733 174.000000,249.500000 
"/>
<path fill="none" opacity="1.000000" stroke="#000000" stroke-linecap="round" stroke-linejoin="round" stroke-width="3.000000"
	d="
M224.000000,172.000000 
	C226.173279,175.582153 230.277695,177.538086 232.000000,181.500000 
"/>
<path fill="none" opacity="1.000000" stroke="#000000" stroke-linecap="round" stroke-linejoin="round" stroke-width="3.000000"
	d="
M288.000000,174.500000 
	C289.519653,178.316956 293.512848,180.072632 295.500000,183.500000 
"/>
<path fill="none" opacity="1.000000" stroke="#000000" stroke-linecap="round" stroke-linejoin="round" stroke-width="3.000000"
	d="
M224.000000,163.000000 
	C226.173279,166.582153 230.277695,168.538086 232.000000,172.500000 
"/>
<path fill="none" opacity="1.000000" stroke="#000000" stroke-linecap="round" stroke-linejoin="round" stroke-width="3.000000"
	d="
M224.000000,146.000000 
	C226.731430,149.257843 230.620697,151.479721 232.500000,155.500000 
"/>
<path fill="none" opacity="1.000000" stroke="#000000" stroke-linecap="round" stroke-linejoin="round" stroke-width="3.000000"
	d="
M224.000000,83.000000 
	C226.173279,86.582153 230.277695,88.538086 232.000000,92.500000 
"/>
<path fill="none" opacity="1.000000" stroke="#000000" stroke-linecap="round" stroke-linejoin="round" stroke-width="3.000000"
	d="
M287.500000,102.500000 
	C288.336212,106.460884 292.793365,107.806641 294.000000,111.500000 
"/>
<path fill="none" opacity="1.000000" stroke="#000000" stroke-linecap="round" stroke-linejoin="round" stroke-width="3.000000"
	d="
M288.500000,62.000000 
	C291.811798,63.688198 294.311798,66.188194 296.000000,69.500000 
"/>
<path fill="none" opacity="1.000000" stroke="#000000" stroke-linecap="round" stroke-linejoin="round" stroke-width="3.000000"
	d="
M287.500000,182.500000 
	C288.368683,185.058762 289.773865,187.129837 292.500000,188.000000 
"/>
<path fill="none" opacity="1.000000" stroke="#000000" stroke-linecap="round" stroke-linejoin="round" stroke-width="2.000000"
	d="
M257.500000,291.000000 
	C259.320099,292.867126 260.345978,295.222992 261.500000,297.500000 
"/>
<path fill="none" opacity="1.000000" stroke="#000000" stroke-linecap="round" stroke-linejoin="round" stroke-width="3.000000"
	d="
M224.000000,181.000000 
	C226.166672,183.166672 228.333328,185.333328 230.500000,187.500000 
"/>
<path fill="none" opacity="1.000000" stroke="#000000" stroke-linecap="round" stroke-linejoin="round" stroke-width="5.000000"
	d="
M202.000000,246.000000 
	C198.000000,246.000000 194.000000,246.000000 190.000000,246.000000 
"/>
<path fill="none" opacity="1.000000" stroke="#000000" stroke-linecap="round" stroke-linejoin="round" stroke-width="5.000000"
	d="
M133.000000,246.000000 
	C129.333328,246.000000 125.666664,246.000000 122.000000,246.000000 
"/>
<path fill="none" opacity="1.000000" stroke="#000000" stroke-linecap="round" stroke-linejoin="round" stroke-width="2.000000"
	d="
M331.500000,289.500000 
	C328.166656,289.500000 324.833344,289.500000 321.500000,289.500000 
"/>
<path fill="none" opacity="1.000000" stroke="#000000" stroke-linecap="round" stroke-linejoin="round" stroke-width="2.000000"
	d="
M403.500000,289.500000 
	C400.166656,289.500000 396.833344,289.500000 393.500000,289.500000 
"/>
<path fill="none" opacity="1.000000" stroke="#000000" stroke-linecap="round" stroke-linejoin="round" stroke-width="2.000000"
	d="
M193.500000,289.500000 
	C190.500000,289.500000 187.500000,289.500000 184.500000,289.500000 
"/>
<path fill="none" opacity="1.000000" stroke="#000000" stroke-linecap="round" stroke-linejoin="round" stroke-width="2.000000"
	d="
M110.500000,289.500000 
	C106.662880,291.529602 104.380516,297.084930 106.578407,299.939636 
	C108.180122,302.020050 110.084442,304.785828 113.482758,302.967773 
	C116.953857,301.110840 118.219749,294.722351 116.017029,291.488403 
	C114.755928,289.636871 113.023506,289.274567 111.000000,289.500000 
"/>
<path fill="none" opacity="1.000000" stroke="#000000" stroke-linecap="round" stroke-linejoin="round" stroke-width="6.000000"
	d="
M318.500000,245.500000 
	C315.935608,246.843170 312.891754,247.442291 311.482513,250.491913 
	C309.138367,255.564804 309.878235,259.683655 313.487946,263.013062 
	C317.158844,266.398895 322.618988,267.056488 327.000000,264.500000 
	C331.043396,262.140625 333.096588,257.418121 331.999969,253.000000 
	C330.820953,248.249878 326.054565,245.500000 319.000000,245.500000 
"/>
</svg>